# xmcd CD database file
#
# Track frame offsets:
#	182
#	13505
#	27325
#	39640
#	53232
#	68202
#	82387
#	96057
#	108060
#	119750
#	133445
#	146025
#	161030
#	174730
#	188600
#	202062
#	214615
#	227300
#
# Disc length: 3177 seconds
#
# Revision: 0
# Processed by: cddbd v1.4PL0 Copyright (c) Steve Scherf et al.
# Submitted via: CDex 1.50Beta7
#
DISCID=080c6712
DTITLE=Coleman Hawkins - The Hawk In Europe (1934-1937)
DYEAR=1900
DGENRE=Jazz
TTITLE0=Lullaby
TTITLE1=Lost In A Fog
TTITLE2=Lady Be Good
TTITLE3=Avalon
TTITLE4=What A Difference A Day Made
TTITLE5=Stardust
TTITLE6=Meditation
TTITLE7=Netcha's Dream
TTITLE8=A Strange Fact
TTITLE9=Crazy Rhythm
TTITLE10=Honeysuckle Rose
TTITLE11=Out Of Nowhere
TTITLE12=Sweet Georgia Brown
TTITLE13=Mighty Like The Blues
TTITLE14=Pardon Me, Pretty Baby
TTITLE15=Somebody Loves Me
TTITLE16=My Buddy
TTITLE17=Well All Right Then
EXTD=
EXTT0=
EXTT1=
EXTT2=
EXTT3=
EXTT4=
EXTT5=
EXTT6=
EXTT7=
EXTT8=
EXTT9=
EXTT10=
EXTT11=
EXTT12=
EXTT13=
EXTT14=
EXTT15=
EXTT16=
EXTT17=
PLAYORDER=
